<?xml version="1.0" encoding="iso-8859-1"?>
<!-- Generator: Adobe Illustrator 19.0.0, SVG Export Plug-In . SVG Version: 6.00 Build 0)  -->
<svg version="1.1" id="Capa_1" xmlns="http://www.w3.org/2000/svg" xmlns:xlink="http://www.w3.org/1999/xlink" x="0px" y="0px"
	 viewBox="0 0 480.001 480.001" style="enable-background:new 0 0 480.001 480.001;" xml:space="preserve">
<g>
	
		<linearGradient id="SVGID_1_" gradientUnits="userSpaceOnUse" x1="-58.322" y1="587.626" x2="17.315" y2="587.626" gradientTransform="matrix(8 0 0 -8 455 4941.0093)">
		<stop  offset="0" style="stop-color:#E93E3A"/>
		<stop  offset="0.353" style="stop-color:#ED683C"/>
		<stop  offset="0.719" style="stop-color:#F3903F"/>
		<stop  offset="1" style="stop-color:#FDC70C"/>
	</linearGradient>
	<path style="fill:url(#SVGID_1_);" d="M240.904,56.001h-1.824c-101.619,0.482-183.607,83.251-183.126,184.87
		c0.251,52.945,23.297,103.216,63.246,137.962c4.149,3.616,8.44,7.024,12.872,10.224c31.151,22.525,68.567,34.744,107.008,34.944
		h1.84c101.619-0.482,183.607-83.251,183.126-184.87c-0.251-52.945-23.297-103.216-63.246-137.962
		c-4.155-3.616-8.445-7.027-12.872-10.232C316.776,68.416,279.36,56.2,240.92,56.001H240.904z M232,135.585
		c-17.281-0.697-34.388-3.727-50.856-9.008c13.892-18.944,31.127-35.191,50.856-47.944V135.585z M248,78.657
		c19.741,12.731,36.979,28.976,50.856,47.928c-16.47,5.276-33.576,8.303-50.856,9V78.657z M139.832,105.209
		c1.6-1.2,3.304-2.336,4.968-3.48c0.264-0.184,0.536-0.352,0.8-0.536c2.016-1.376,4-2.744,6.112-4
		c1.688-1.04,3.408-2.032,5.128-3.016c0.744-0.416,1.496-0.8,2.24-1.208c1.704-0.936,3.408-1.888,5.136-2.76s3.456-1.712,5.2-2.52
		c1.096-0.504,2.208-0.952,3.312-1.432c1.512-0.664,3.024-1.336,4.56-1.952c1.712-0.696,3.424-1.376,5.16-2.008
		c1.424-0.512,2.872-0.96,4.304-1.44s2.744-0.928,4.136-1.352c1.656-0.512,3.312-1.032,4.992-1.488s3.472-0.84,5.208-1.256
		c1.312-0.312,2.624-0.632,3.944-0.912c1.544-0.328,3.072-0.696,4.624-0.984h0.096c-16.983,12.968-31.857,28.485-44.096,46
		c-9.596-3.947-18.847-8.686-27.656-14.168C138.624,106.193,139.2,105.673,139.832,105.209L139.832,105.209z M172.024,140.409
		c19.332,6.697,39.554,10.472,60,11.2v80.392h-87.736c1.285-32.395,10.824-63.925,27.712-91.6L172.024,140.409z M232,248.001v80.424
		c-20.443,0.752-40.662,4.526-60,11.2c-16.892-27.682-26.431-59.221-27.712-91.624L232,248.001z M248,344.417
		c17.281,0.697,34.388,3.727,50.856,9.008c-13.892,18.944-31.127,35.191-50.856,47.944V344.417z M232,401.345
		c-19.741-12.731-36.979-28.976-50.856-47.928c16.47-5.276,33.576-8.303,50.856-9V401.345z M165.664,359.201
		c12.244,17.514,27.118,33.032,44.096,46.008c-1.6-0.288-3.136-0.656-4.704-0.992c-1.424-0.304-2.832-0.648-4.24-0.984
		c-1.6-0.384-3.24-0.728-4.84-1.16s-3.384-1-5.072-1.512c-1.464-0.448-2.904-0.936-4.352-1.424s-2.704-0.864-4-1.352
		c-1.744-0.64-3.472-1.32-5.2-2.016c-1.6-0.632-3.128-1.328-4.688-2.008c-1.064-0.464-2.128-0.896-3.2-1.384
		c-1.752-0.8-3.488-1.6-5.208-2.512s-3.456-1.832-5.168-2.776c-0.744-0.408-1.496-0.8-2.232-1.208c-1.712-0.976-3.416-1.96-5.096-3
		c-2.048-1.256-4-2.608-6.032-4l-0.968-0.632c-1.6-1.128-3.28-2.248-4.888-3.432c-0.624-0.472-1.216-0.992-1.84-1.472
		C146.835,367.874,156.078,363.143,165.664,359.201L165.664,359.201z M340.16,374.793c-1.6,1.208-3.304,2.344-4.976,3.496
		l-0.48,0.32c-2.12,1.448-4.248,2.88-6.4,4.224c-1.688,1.048-3.408,2.04-5.136,3.016c-0.672,0.384-1.36,0.736-2.04,1.112
		c-1.768,0.968-3.528,1.952-5.328,2.856s-3.448,1.712-5.2,2.52c-1.056,0.488-2.136,0.92-3.2,1.392c-1.552,0.68-3.096,1.368-4.664,2
		c-1.712,0.688-3.432,1.36-5.16,2c-1.408,0.512-2.84,0.952-4.264,1.424s-2.768,0.936-4.168,1.368c-1.664,0.504-3.32,1.032-5,1.488
		s-3.456,0.8-5.184,1.248c-1.32,0.312-2.64,0.64-4,0.92c-1.544,0.328-3.072,0.696-4.624,0.976h-0.096
		c16.98-12.97,31.855-28.487,44.096-46c9.596,3.947,18.847,8.686,27.656,14.168C341.376,373.809,340.8,374.329,340.16,374.793
		L340.16,374.793z M307.976,339.593c-19.338-6.671-39.557-10.446-60-11.2v-80.392h87.736c-1.284,32.398-10.823,63.931-27.712,91.608
		L307.976,339.593z M248,232.001v-80.36c20.446-0.727,40.669-4.502,60-11.2c16.882,27.663,26.42,59.178,27.712,91.56H248z
		 M314.336,120.841c-12.244-17.518-27.121-33.04-44.104-46.016c1.6,0.288,3.136,0.664,4.704,1c1.424,0.296,2.832,0.64,4.248,0.984
		c1.6,0.384,3.2,0.728,4.8,1.16s3.392,0.992,5.08,1.512c1.464,0.448,2.904,0.936,4.352,1.424s2.704,0.864,4,1.352
		c1.752,0.632,3.488,1.32,5.216,2.016c1.6,0.632,3.112,1.32,4.656,2c1.064,0.464,2.144,0.896,3.2,1.384
		c1.744,0.8,3.488,1.648,5.208,2.52s3.464,1.84,5.176,2.784c0.736,0.4,1.488,0.8,2.216,1.2c1.712,0.976,3.424,1.96,5.112,3
		c2.088,1.288,4.128,2.672,6.16,4.056l0.8,0.536c1.6,1.128,3.296,2.248,4.896,3.44c0.632,0.472,1.224,0.992,1.848,1.472
		C333.122,112.144,323.901,116.886,314.336,120.841L314.336,120.841z M125.264,117.337c9.99,6.684,20.557,12.462,31.576,17.264
		c-17.481,29.582-27.295,63.062-28.552,97.4H72.216C74.306,188.333,93.336,147.2,125.264,117.337z M72.216,248.001h56.072
		c1.253,34.339,11.068,67.819,28.552,97.4c-11.019,4.802-21.586,10.58-31.576,17.264C93.336,332.802,74.306,291.669,72.216,248.001z
		 M354.736,362.665c-9.977-6.682-20.531-12.46-31.536-17.264c17.467-29.586,27.268-63.066,28.512-97.4h56.072
		C405.694,291.669,386.664,332.802,354.736,362.665L354.736,362.665z M407.784,232.001h-56.072
		c-1.241-34.335-11.042-67.816-28.512-97.4c11.019-4.802,21.586-10.58,31.576-17.264
		C386.689,147.207,405.704,188.339,407.784,232.001z"/>
	
		<linearGradient id="SVGID_2_" gradientUnits="userSpaceOnUse" x1="-58.322" y1="587.6261" x2="17.315" y2="587.6261" gradientTransform="matrix(8 0 0 -8 455 4941.0093)">
		<stop  offset="0" style="stop-color:#E93E3A"/>
		<stop  offset="0.353" style="stop-color:#ED683C"/>
		<stop  offset="0.719" style="stop-color:#F3903F"/>
		<stop  offset="1" style="stop-color:#FDC70C"/>
	</linearGradient>
	<path style="fill:url(#SVGID_2_);" d="M418.672,80.001H448v-16h-48c-4.418,0-8,3.582-8,8v48h16V92.049
		c36.234,40.748,56.172,93.425,56,147.952c0,123.712-100.288,224-224,224s-224-100.288-224-224s100.288-224,224-224
		c34.877-0.097,69.283,8.055,100.408,23.792l7.2-14.288C314.252,8.636,277.379-0.103,240,0.001c-132.548,0-240,107.452-240,240
		s107.452,240,240,240s240-107.452,240-240C480.187,180.893,458.319,123.841,418.672,80.001z"/>
</g>
<g>
</g>
<g>
</g>
<g>
</g>
<g>
</g>
<g>
</g>
<g>
</g>
<g>
</g>
<g>
</g>
<g>
</g>
<g>
</g>
<g>
</g>
<g>
</g>
<g>
</g>
<g>
</g>
<g>
</g>
</svg>
